<svg xmlns="http://www.w3.org/2000/svg" width="128" height="128" viewBox="0 0 128 128" fill="none">
  <defs>
    <linearGradient id="sg_grad" x1="18" y1="14" x2="118" y2="122" gradientUnits="userSpaceOnUse">
      <stop stop-color="#ff2d55"/>
      <stop offset="0.55" stop-color="#ff4d6d"/>
      <stop offset="1" stop-color="#ff8fab"/>
    </linearGradient>
    <linearGradient id="sg_glass" x1="20" y1="18" x2="112" y2="116" gradientUnits="userSpaceOnUse">
      <stop stop-color="#ffffff" stop-opacity="0.44"/>
      <stop offset="1" stop-color="#ffffff" stop-opacity="0.08"/>
    </linearGradient>
  </defs>

  <rect x="10" y="10" width="108" height="108" rx="28" fill="url(#sg_grad)"/>

  <path d="M44 38c11.5 0 20 8.6 20 19.1 0 10.5-8.5 19.1-20 19.1-11.5 0-20-8.6-20-19.1C24 46.6 32.5 38 44 38Z" fill="url(#sg_glass)"/>
  <path d="M84 38c11.5 0 20 8.6 20 19.1 0 10.5-8.5 19.1-20 19.1-11.5 0-20-8.6-20-19.1C64 46.6 72.5 38 84 38Z" fill="url(#sg_glass)"/>

  <path d="M64 100c-18-12.5-30-24.8-36.1-37.2-1.5-3-2.3-6.2-2.3-9.6C25.6 41.2 34 32 44.8 32c8 0 14.7 4.5 19.2 10.8C68.5 36.5 75.2 32 83.2 32 94 32 102.4 41.2 102.4 53.2c0 3.4-.8 6.6-2.3 9.6C94 75.2 82 87.5 64 100Z" fill="none" stroke="#ffffff" stroke-opacity="0.92" stroke-width="7" stroke-linecap="round" stroke-linejoin="round"/>

  <path d="M64 112c-22.8-15.8-38.2-31.3-46-46.5-2.1-4-3.1-8.2-3.1-12.6C14.9 35.9 27.1 22 44.5 22c8.6 0 15.7 3.7 19.5 8.7 3.8-5 10.9-8.7 19.5-8.7 17.4 0 29.6 13.9 29.6 30.9 0 4.4-1 8.6-3.1 12.6-7.8 15.2-23.2 30.7-46 46.5Z" fill="none" stroke="#ffffff" stroke-opacity="0.22" stroke-width="3" stroke-linecap="round" stroke-linejoin="round"/>
</svg>
